<?xml version="1.0" encoding="UTF-8" standalone="no"?>
<svg
   xmlns:dc="http://purl.org/dc/elements/1.1/"
   xmlns:cc="http://creativecommons.org/ns#"
   xmlns:rdf="http://www.w3.org/1999/02/22-rdf-syntax-ns#"
   xmlns:svg="http://www.w3.org/2000/svg"
   xmlns="http://www.w3.org/2000/svg"
   xmlns:sodipodi="http://sodipodi.sourceforge.net/DTD/sodipodi-0.dtd"
   xmlns:inkscape="http://www.inkscape.org/namespaces/inkscape"
   id="svg4776"
   sodipodi:docname="Mail-Icon-White.svg"
   viewBox="0 0 300 300"
   version="1.1"
   inkscape:version="1.0 (4035a4fb49, 2020-05-01)"
   width="100%"
   height="100%">
  <defs
     id="defs16" />
  <sodipodi:namedview
     id="base"
     bordercolor="#666666"
     inkscape:pageshadow="2"
     inkscape:window-y="-8"
     pagecolor="#ffffff"
     inkscape:window-height="1416"
     inkscape:window-maximized="1"
     inkscape:zoom="2.8"
     inkscape:window-x="1358"
     showgrid="false"
     borderopacity="1.0"
     inkscape:current-layer="layer1"
     inkscape:cx="115.45615"
     inkscape:cy="142.1276"
     inkscape:window-width="2560"
     inkscape:pageopacity="0.0"
     inkscape:document-units="px"
     inkscape:document-rotation="0" />
  <g
     id="layer1"
     inkscape:label="Layer 1"
     inkscape:groupmode="layer"
     transform="translate(-231.54,-375.82)">
    <path
       id="path3794"
       style="color:#000000;fill:#ffffff"
       d="M 167.5957 160.88477 L 154.67773 172.17773 C 154.00618 172.76389 153.24975 173.203 152.45117 173.49609 C 151.65259 173.78918 150.81161 173.93749 149.9707 173.9375 C 149.1298 173.93751 148.28877 173.78918 147.49023 173.49609 C 146.6917 173.20301 145.93514 172.76393 145.26367 172.17773 L 132.59961 161.10938 L 90.107422 198.99219 L 210.33594 198.99219 L 167.5957 160.88477 z "
       transform="translate(231.54,375.82)" />
    <path
       id="path880"
       style="color:#000000;fill:#ffffff"
       d="M 76.628906 112.20117 L 76.628906 191.83984 L 121.74023 151.62109 L 76.628906 112.20117 z "
       transform="translate(231.54,375.82)" />
    <path
       id="path878"
       style="color:#000000;fill:#ffffff"
       d="M 223.37305 112.15625 L 178.44922 151.4043 L 223.37305 191.45117 L 223.37305 112.15625 z "
       transform="translate(231.54,375.82)" />
    <path
       id="path876"
       style="color:#000000;fill:#ffffff"
       d="M 88.539062 103.60938 L 149.98633 157.2832 L 211.41797 103.60938 L 88.539062 103.60938 z "
       transform="translate(231.54,375.82)" />
    <path
       id="path872"
       style="color:#000000;fill:#ffffff;stroke-width:1"
       d="m 381.54,375.82001 a 150.00073,150.00096 0 0 0 -150,150.00001 150.00073,150.00096 0 0 0 150,150 150.00073,150.00096 0 0 0 150,-150 150.00073,150.00096 0 0 0 -150,-150.00001 z m -84.1981,83.58182 h 168.39823 c 1.02753,-7e-5 2.00812,0.21104 2.90197,0.59023 0.89388,0.37919 1.70113,0.92829 2.37918,1.60526 0.67806,0.67698 1.22711,1.48193 1.60721,2.37521 0.3801,0.89329 0.59021,1.87401 0.59021,2.90214 v 117.88049 c 4.9e-4,1.02847 -0.20859,2.0114 -0.58816,2.90621 -0.37958,0.89482 -0.92939,1.7025 -1.60722,2.38135 -0.67783,0.67884 -1.48488,1.2288 -2.37916,1.60934 -0.89429,0.38054 -1.87509,0.59236 -2.90403,0.59227 H 297.3419 c -1.02882,9e-5 -2.00982,-0.2117 -2.90401,-0.59227 -0.8942,-0.38057 -1.70139,-0.93048 -2.37917,-1.60934 -0.67778,-0.67887 -1.22559,-1.48654 -1.60517,-2.38135 -0.37959,-0.8948 -0.5906,-1.87785 -0.5902,-2.90621 V 466.87467 c -1e-4,-1.02815 0.21015,-2.00884 0.5902,-2.90214 0.38004,-0.89328 0.92919,-1.69824 1.60721,-2.37521 0.67803,-0.67696 1.48531,-1.22608 2.37917,-1.60526 0.89386,-0.37918 1.87445,-0.5903 2.90197,-0.59023 z" />
    <g
       id="layer1-7"
       inkscape:label="Calque 1"
       transform="matrix(3.8189326,0,0,3.8189326,-1398.1391,-1597.4564)"
       style="fill:#ff0000">
      <g
         id="g6564"
         inkscape:export-ydpi="90"
         inkscape:export-xdpi="90"
         inkscape:export-filename="C:\Users\lguyot\Desktop\icon-email.png"
         transform="translate(-560.19,271.89)"
         style="fill:#ff0000" />
    </g>
  </g>
  <metadata
     id="metadata14">
    <rdf:RDF>
      <cc:Work>
        <dc:format>image/svg+xml</dc:format>
        <dc:type
           rdf:resource="http://purl.org/dc/dcmitype/StillImage" />
        <cc:license
           rdf:resource="http://creativecommons.org/publicdomain/zero/1.0/" />
        <dc:publisher>
          <cc:Agent
             rdf:about="http://openclipart.org/">
            <dc:title>Rygle</dc:title>
          </cc:Agent>
        </dc:publisher>
        <dc:title />
        <dc:date>2015-03-29</dc:date>
        <dc:description />
        <dc:source />
        <dc:creator>
          <cc:Agent>
            <dc:title>Rygle</dc:title>
          </cc:Agent>
        </dc:creator>
        <dc:subject>
          <rdf:Bag>
            <rdf:li>icon</rdf:li>
            <rdf:li>mail</rdf:li>
            <rdf:li>snail</rdf:li>
            <rdf:li>communication</rdf:li>
            <rdf:li>communicate</rdf:li>
            <rdf:li>address</rdf:li>
            <rdf:li>envelope</rdf:li>
          </rdf:Bag>
        </dc:subject>
        <dc:rights>
          <cc:Agent>
            <dc:title>Public Domain</dc:title>
          </cc:Agent>
        </dc:rights>
      </cc:Work>
      <cc:License
         rdf:about="http://creativecommons.org/publicdomain/zero/1.0/">
        <cc:permits
           rdf:resource="http://creativecommons.org/ns#Reproduction" />
        <cc:permits
           rdf:resource="http://creativecommons.org/ns#Distribution" />
        <cc:permits
           rdf:resource="http://creativecommons.org/ns#DerivativeWorks" />
      </cc:License>
    </rdf:RDF>
  </metadata>
</svg>
