<?xml version="1.0" encoding="UTF-8" standalone="no"?>
<svg
   xmlns:dc="http://purl.org/dc/elements/1.1/"
   xmlns:cc="http://creativecommons.org/ns#"
   xmlns:rdf="http://www.w3.org/1999/02/22-rdf-syntax-ns#"
   xmlns:svg="http://www.w3.org/2000/svg"
   xmlns="http://www.w3.org/2000/svg"
   xmlns:sodipodi="http://sodipodi.sourceforge.net/DTD/sodipodi-0.dtd"
   xmlns:inkscape="http://www.inkscape.org/namespaces/inkscape"
   id="svg4776"
   sodipodi:docname="Mail-Icon_white.svg"
   viewBox="0 0 300 300"
   version="1.1"
   inkscape:version="1.0 (4035a4fb49, 2020-05-01)"
   width="100%"
   height="100%">
  <defs
     id="defs16">
    <marker
       inkscape:isstock="true"
       style="overflow:visible;"
       id="Arrow1Mend"
       refX="0.0"
       refY="0.0"
       orient="auto"
       inkscape:stockid="Arrow1Mend">
      <path
         transform="scale(0.4) rotate(180) translate(10,0)"
         style="fill-rule:evenodd;stroke:#000000;stroke-width:1.0pt;"
         d="M 0.0,0.0 L 5.0,-5.0 L -12.5,0.0 L 5.0,5.0 L 0.0,0.0 z "
         id="path846" />
    </marker>
    <marker
       inkscape:isstock="true"
       style="overflow:visible"
       id="Arrow1Mstart"
       refX="0.0"
       refY="0.0"
       orient="auto"
       inkscape:stockid="Arrow1Mstart">
      <path
         transform="scale(0.4) translate(10,0)"
         style="fill-rule:evenodd;stroke:#000000;stroke-width:1.0pt"
         d="M 0.0,0.0 L 5.0,-5.0 L -12.5,0.0 L 5.0,5.0 L 0.0,0.0 z "
         id="path843" />
    </marker>
    <marker
       inkscape:isstock="true"
       style="overflow:visible;"
       id="Arrow1Lend"
       refX="0.0"
       refY="0.0"
       orient="auto"
       inkscape:stockid="Arrow1Lend">
      <path
         transform="scale(0.8) rotate(180) translate(12.5,0)"
         style="fill-rule:evenodd;stroke:#000000;stroke-width:1.0pt;"
         d="M 0.0,0.0 L 5.0,-5.0 L -12.5,0.0 L 5.0,5.0 L 0.0,0.0 z "
         id="path840" />
    </marker>
    <marker
       inkscape:isstock="true"
       style="overflow:visible"
       id="Arrow1Lstart"
       refX="0.0"
       refY="0.0"
       orient="auto"
       inkscape:stockid="Arrow1Lstart">
      <path
         transform="scale(0.8) translate(12.5,0)"
         style="fill-rule:evenodd;stroke:#000000;stroke-width:1.0pt"
         d="M 0.0,0.0 L 5.0,-5.0 L -12.5,0.0 L 5.0,5.0 L 0.0,0.0 z "
         id="path837" />
    </marker>
  </defs>
  <sodipodi:namedview
     inkscape:pagecheckerboard="true"
     showguides="true"
     id="base"
     bordercolor="#666666"
     inkscape:pageshadow="2"
     inkscape:window-y="-8"
     pagecolor="#ffffff"
     inkscape:window-height="706"
     inkscape:window-maximized="1"
     inkscape:zoom="1.979899"
     inkscape:window-x="-8"
     showgrid="false"
     borderopacity="1.0"
     inkscape:current-layer="layer1"
     inkscape:cx="151.50221"
     inkscape:cy="188.892"
     inkscape:window-width="1366"
     inkscape:pageopacity="0.0"
     inkscape:document-units="px"
     inkscape:document-rotation="0">
    <inkscape:grid
       id="grid1211"
       type="xygrid" />
  </sodipodi:namedview>
  <g
     id="layer1"
     inkscape:label="Layer 1"
     inkscape:groupmode="layer"
     transform="translate(-231.54,-375.82)">
    <path
       transform="translate(231.54,375.82)"
       d="M 150 0 A 150 150 0 0 0 0 150 A 150 150 0 0 0 150 300 A 150 150 0 0 0 300 150 A 150 150 0 0 0 150 0 z M 67.318359 83.634766 L 233.3457 83.634766 C 237.9879 83.634766 241.88086 87.527722 241.88086 92.169922 L 241.88086 208.0918 C 241.88086 212.734 237.98788 216.62695 233.3457 216.62695 L 67.318359 216.62695 C 62.676179 216.62695 58.783203 212.73398 58.783203 208.0918 L 58.783203 92.169922 C 58.783203 87.527742 62.676159 83.634766 67.318359 83.634766 z M 75.685547 93.634766 L 128.88086 142.50977 L 128.96094 142.43359 L 130.12695 143.65625 L 149.74219 161.67773 L 224.39258 93.634766 L 75.685547 93.634766 z M 231.88086 100.33984 L 178.97656 148.56055 L 231.88086 199.7793 L 231.88086 100.33984 z M 68.783203 100.87305 L 68.783203 199.86523 L 68.917969 199.73633 L 121.63086 149.42773 L 68.783203 100.87305 z M 171.57227 155.30859 L 153.0957 172.15039 A 5.0005 5.0005 0 0 1 146.3457 172.13672 L 129.00977 156.20898 L 76.181641 206.62695 L 224.57617 206.62695 L 171.57227 155.30859 z "
       style="color:#000000;fill:#ffffff;stroke-width:1"
       id="path3794" />
  </g>
  <metadata
     id="metadata14">
    <rdf:RDF>
      <cc:Work>
        <dc:format>image/svg+xml</dc:format>
        <dc:type
           rdf:resource="http://purl.org/dc/dcmitype/StillImage" />
        <cc:license
           rdf:resource="http://creativecommons.org/publicdomain/zero/1.0/" />
        <dc:publisher>
          <cc:Agent
             rdf:about="http://openclipart.org/">
            <dc:title>Rygle</dc:title>
          </cc:Agent>
        </dc:publisher>
        <dc:title></dc:title>
        <dc:date>2015-03-29</dc:date>
        <dc:description />
        <dc:source />
        <dc:creator>
          <cc:Agent>
            <dc:title>Rygle</dc:title>
          </cc:Agent>
        </dc:creator>
        <dc:subject>
          <rdf:Bag>
            <rdf:li>icon</rdf:li>
            <rdf:li>mail</rdf:li>
            <rdf:li>snail</rdf:li>
            <rdf:li>communication</rdf:li>
            <rdf:li>communicate</rdf:li>
            <rdf:li>address</rdf:li>
            <rdf:li>envelope</rdf:li>
          </rdf:Bag>
        </dc:subject>
        <dc:rights>
          <cc:Agent>
            <dc:title>Public Domain</dc:title>
          </cc:Agent>
        </dc:rights>
      </cc:Work>
      <cc:License
         rdf:about="http://creativecommons.org/publicdomain/zero/1.0/">
        <cc:permits
           rdf:resource="http://creativecommons.org/ns#Reproduction" />
        <cc:permits
           rdf:resource="http://creativecommons.org/ns#Distribution" />
        <cc:permits
           rdf:resource="http://creativecommons.org/ns#DerivativeWorks" />
      </cc:License>
    </rdf:RDF>
  </metadata>
</svg>
